<?xml version="1.0" encoding="utf-8"?>
<!-- Generator: Adobe Illustrator 26.0.1, SVG Export Plug-In . SVG Version: 6.00 Build 0)  -->
<svg version="1.1" xmlns="http://www.w3.org/2000/svg" xmlns:xlink="http://www.w3.org/1999/xlink" x="0px" y="0px"
	 viewBox="0 0 820.8 191.9" style="enable-background:new 0 0 820.8 191.9;" xml:space="preserve">
<style type="text/css">
	.st0{fill:#C5A1FE;}
	.st1{fill:#1C1C1C;}
	.st2{display:none;}
	.st3{display:inline;}
	.st4{fill:#FFFFFF;}
</style>
<g id="Calque_1">
	<g>
		<path id="Tracé_1111094-2" class="st0" d="M428,96c0-38.2-30.7-67.1-68.5-70.1L67.7,1.9l39.5,54.8L2.6,96l104.6,39.2L67.7,190
			L359.4,166c37.8-3.8,68.5-31.9,68.5-70.1"/>
		<g id="Groupe_38396-2">
			<path id="Tracé_1110999-8" class="st1" d="M354.2,138.2c-26.6,0-40.1-12.8-40.1-38.1l-0.9-45.4h25.3l-0.7,42.9
				c0,11.8,6.2,18.8,16.7,18.8c10.4,0,16.7-6.6,16.7-18.1l-0.8-43.6h25.3l-0.9,44.7C394.8,125.5,381.5,138.3,354.2,138.2"/>
			<path id="Tracé_1111000-8" class="st1" d="M474.5,137.1l-40.2-47.5l3.7,47.5H414V54.7h21.4l38.9,45.8l-3.8-45.8h24.2v82.4H474.5
				z"/>
			<rect id="Rectangle_34108-8" x="514.2" y="54.9" class="st1" width="23.7" height="82.4"/>
			<path id="Tracé_1111001-8" class="st1" d="M582.6,137.3V72l-26,1.9V54.9h75.7v18.9l-26-1.9v65.3H582.6z"/>
			<path id="Tracé_1111002-8" class="st1" d="M649.9,137.3V54.9h69.5v19.1l-46.3-1.9v15.8h43.2v15.4H673v16.5l47-1.9v19.2H649.9z"
				/>
			<g id="Groupe_38307-8">
				<path id="Tracé_1111003-8" class="st1" d="M768.5,54.9h-30.9v82.4h29.9c31.8,0,50.7-15.6,50.7-41.7v-0.2
					C818.2,69.7,800,54.9,768.5,54.9z M794.3,96.2c0,13.7-8.9,21.2-25.2,21.2h-7.9V74.8h7.9c16.2,0,25.2,7.5,25.2,21.2V96.2z"/>
			</g>
			<path id="Tracé_1111004-8" class="st1" d="M155.4,137.1l1.9-35.5l-32.4-46.8h29.8l14,25.6l14.8-25.6h29.2l-32.5,46.9l1.9,35.5
				L155.4,137.1z"/>
			<path id="Tracé_1111005-8" class="st1" d="M254.5,138.6c-25.1,0-44.8-18.6-44.8-42.4v-0.2c0-23.9,19.8-42.7,45-42.7
				s44.8,18.6,44.8,42.4v0.3C299.5,119.8,279.7,138.6,254.5,138.6 M254.5,73.5c-11.9,0-20.9,9.5-20.9,22.2v0.2
				c0,12.8,9.1,22.4,21.1,22.4s20.9-9.5,20.9-22.2v-0.2C275.7,83.1,266.6,73.5,254.5,73.5"/>
		</g>
	</g>
</g>
<g id="Calque_2" class="st2">
	<g class="st3">
		<path id="Tracé_1111094-2_00000151545136325018089620000009468483360471077774_" class="st4" d="M428,96
			c0-38.2-30.7-67.1-68.5-70.1L67.7,1.9l39.5,54.8L2.6,96l104.6,39.2L67.7,190L359.4,166c37.8-3.8,68.5-31.9,68.5-70.1"/>
		<g id="Groupe_38396-2_00000076564834212759135160000001826185535212072576_">
			<path id="Tracé_1110999-8_00000150785216313038740440000005953189725242246573_" class="st1" d="M354.2,138.2
				c-26.6,0-40.1-12.8-40.1-38.1l-0.9-45.4h25.3l-0.7,42.9c0,11.8,6.2,18.8,16.7,18.8c10.4,0,16.7-6.6,16.7-18.1l-0.8-43.6h25.3
				l-0.9,44.7C394.8,125.5,381.5,138.3,354.2,138.2"/>
			<path id="Tracé_1111000-8_00000095326103746686793380000001903892310105099672_" class="st1" d="M474.5,137.1l-40.2-47.5
				l3.7,47.5H414V54.7h21.4l38.9,45.8l-3.8-45.8h24.2v82.4H474.5z"/>
			
				<rect id="Rectangle_34108-8_00000026126006748043901430000017351413947325885057_" x="514.2" y="54.9" class="st1" width="23.7" height="82.4"/>
			<path id="Tracé_1111001-8_00000096026036605701094950000009393914365501040277_" class="st1" d="M582.6,137.3V72l-26,1.9V54.9
				h75.7v18.9l-26-1.9v65.3H582.6z"/>
			<path id="Tracé_1111002-8_00000062884144766310962210000001749558859616184242_" class="st1" d="M649.9,137.3V54.9h69.5v19.1
				l-46.3-1.9v15.8h43.2v15.4H673v16.5l47-1.9v19.2H649.9z"/>
			<g id="Groupe_38307-8_00000139282929231020811700000009716031088320688062_">
				<path id="Tracé_1111003-8_00000042005147238076139640000012344705900261030071_" class="st1" d="M768.5,54.9h-30.9v82.4h29.9
					c31.8,0,50.7-15.6,50.7-41.7v-0.2C818.2,69.7,800,54.9,768.5,54.9z M794.3,96.2c0,13.7-8.9,21.2-25.2,21.2h-7.9V74.8h7.9
					c16.2,0,25.2,7.5,25.2,21.2V96.2z"/>
			</g>
			<path id="Tracé_1111004-8_00000100376696090448661380000010166284911764008596_" class="st1" d="M155.4,137.1l1.9-35.5
				l-32.4-46.8h29.8l14,25.6l14.8-25.6h29.2l-32.5,46.9l1.9,35.5L155.4,137.1z"/>
			<path id="Tracé_1111005-8_00000055688241556189590930000011534538681442630304_" class="st1" d="M254.5,138.6
				c-25.1,0-44.8-18.6-44.8-42.4v-0.2c0-23.9,19.8-42.7,45-42.7s44.8,18.6,44.8,42.4v0.3C299.5,119.8,279.7,138.6,254.5,138.6
				 M254.5,73.5c-11.9,0-20.9,9.5-20.9,22.2v0.2c0,12.8,9.1,22.4,21.1,22.4s20.9-9.5,20.9-22.2v-0.2
				C275.7,83.1,266.6,73.5,254.5,73.5"/>
		</g>
	</g>
</g>
<g id="Calque_3" class="st2">
	<g class="st3">
		<path id="Tracé_1111094-2_00000161627551421441091690000008673822620885746316_" class="st0" d="M428,96
			c0-38.2-30.7-67.1-68.5-70.1L67.7,1.9l39.5,54.8L2.6,96l104.6,39.2L67.7,190L359.4,166c37.8-3.8,68.5-31.9,68.5-70.1"/>
		<g id="Groupe_38396-2_00000142144035238819951230000016018980633735849098_">
			<path id="Tracé_1110999-8_00000168093543156030748890000016132855017075899556_" class="st4" d="M354.2,138.2
				c-26.6,0-40.1-12.8-40.1-38.1l-0.9-45.4h25.3l-0.7,42.9c0,11.8,6.2,18.8,16.7,18.8c10.4,0,16.7-6.6,16.7-18.1l-0.8-43.6h25.3
				l-0.9,44.7C394.8,125.5,381.5,138.3,354.2,138.2"/>
			<path id="Tracé_1111000-8_00000121957954364567518830000014723264296706072201_" class="st4" d="M474.5,137.1l-40.2-47.5
				l3.7,47.5H414V54.7h21.4l38.9,45.8l-3.8-45.8h24.2v82.4H474.5z"/>
			
				<rect id="Rectangle_34108-8_00000127039313447215612140000001997889519692983939_" x="514.2" y="54.9" class="st4" width="23.7" height="82.4"/>
			<path id="Tracé_1111001-8_00000087394365015538963170000017609675366811104149_" class="st4" d="M582.6,137.3V72l-26,1.9V54.9
				h75.7v18.9l-26-1.9v65.3H582.6z"/>
			<path id="Tracé_1111002-8_00000018938663060000872110000011198784930812586398_" class="st4" d="M649.9,137.3V54.9h69.5v19.1
				l-46.3-1.9v15.8h43.2v15.4H673v16.5l47-1.9v19.2H649.9z"/>
			<g id="Groupe_38307-8_00000144308541083031913260000011940728441472064942_">
				<path id="Tracé_1111003-8_00000111170845278478693030000011370974820774150805_" class="st4" d="M768.5,54.9h-30.9v82.4h29.9
					c31.8,0,50.7-15.6,50.7-41.7v-0.2C818.2,69.7,800,54.9,768.5,54.9z M794.3,96.2c0,13.7-8.9,21.2-25.2,21.2h-7.9V74.8h7.9
					c16.2,0,25.2,7.5,25.2,21.2V96.2z"/>
			</g>
			<path id="Tracé_1111004-8_00000155856112551355967650000010939280975892833965_" class="st4" d="M155.4,137.1l1.9-35.5
				l-32.4-46.8h29.8l14,25.6l14.8-25.6h29.2l-32.5,46.9l1.9,35.5L155.4,137.1z"/>
			<path id="Tracé_1111005-8_00000041994723216769962950000011303375869246748300_" class="st4" d="M254.5,138.6
				c-25.1,0-44.8-18.6-44.8-42.4v-0.2c0-23.9,19.8-42.7,45-42.7s44.8,18.6,44.8,42.4v0.3C299.5,119.8,279.7,138.6,254.5,138.6
				 M254.5,73.5c-11.9,0-20.9,9.5-20.9,22.2v0.2c0,12.8,9.1,22.4,21.1,22.4s20.9-9.5,20.9-22.2v-0.2
				C275.7,83.1,266.6,73.5,254.5,73.5"/>
		</g>
	</g>
</g>
</svg>
