<svg xmlns="http://www.w3.org/2000/svg" width="191" height="38" viewBox="0 0 191 38">
    <g fill="none" fill-rule="evenodd">
        <path fill="#1A171B" d="M62.173 4.302c-2.007-.843-4.151-1.392-6.061-1.392-2.795 0-4.19.592-4.19 1.663 0 3.053 12.454.596 12.454 7.109 0 2.697-2.558 4.778-7.685 4.778-3.04 0-5.412-.627-8.14-2.081l1.122-2.433c2.394 1.317 4.627 1.893 7.038 1.893 3.04 0 4.668-.862 4.668-2.157 0-3.34-12.458-.849-12.458-6.946 0-2.63 2.537-4.44 7.127-4.44 2.749 0 5.058.596 7.265 1.69l-1.14 2.316zM76.06 2.823c-3.622 0-6.1 2.428-6.1 5.544 0 3.185 2.368 5.555 6.1 5.555 3.707 0 6.064-2.395 6.064-5.555 0-3.116-2.357-5.544-6.064-5.544m0 13.714c-4.975 0-9.099-3.274-9.099-8.17 0-4.84 4.124-8.183 9.1-8.183 5.003 0 9.062 3.344 9.062 8.183 0 4.896-4.059 8.17-9.063 8.17M97.012 16.517c-5.232 0-9.165-3.271-9.165-8.175 0-4.815 4-8.158 9.165-8.158 3.08 0 5.285.872 7.27 2.307l-1.545 2.268c-1.437-1.093-3.245-1.893-5.645-1.893-3.812 0-6.186 2.385-6.186 5.476 0 3.186 2.393 5.497 6.226 5.497 2.394 0 4.295-.76 5.727-1.855l1.546 2.265c-1.985 1.45-4.313 2.268-7.393 2.268M107.561 16.104h2.904V.661h-2.904zM114.75 16.104V.661h14.226v2.552h-11.324v3.754h8.8v2.547h-8.8v4.036h11.826v2.554zM140.282 3.195v12.91h-2.891V3.195h-6.37V.662h15.626v2.533zM148.977 16.104V.661h14.225v2.552h-11.326v3.754h8.81v2.547h-8.81v4.036h11.826v2.554zM57.481 34.375c1.586 0 3.226-.356 4.459-.928v-4.49h2.81v5.996c-1.98 1.317-4.705 2.119-7.39 2.119-5.224 0-9.166-3.27-9.166-8.177 0-4.819 4-8.145 9.166-8.145 3.02 0 5.288.843 7.269 2.283l-1.539 2.27c-1.444-1.096-3.253-1.84-5.652-1.84-3.81-.084-6.179 2.35-6.179 5.432 0 3.199 2.392 5.48 6.222 5.48M68.566 36.654v-15.43h14.232v2.545H71.46v3.753h8.814v2.548h-8.814v4.04h11.833v2.544zM88.973 36.654h-2.831v-15.43h2.952l10.185 11.63.074-.02c-.175-2.922-.192-5.292-.192-7.585v-4.026h2.827v15.43h-2.93L88.908 25.029l-.046.018c.112 2.288.112 6.282.112 7.581v4.027zM106.069 36.654v-15.43h14.22v2.545h-11.33v3.753h8.81v2.548h-8.81v4.04h11.836v2.544zM133.58 28.404c1.81 0 2.83-.925 2.83-2.266 0-1.462-.897-2.368-2.521-2.368h-7.14v4.634h6.83zm-2.163 2.571h-4.668v5.678h-2.9V21.224h10.04c3.33 0 5.4 2.02 5.4 4.914 0 2.756-2.03 4.403-4.487 4.754l4.654 5.761h-3.63l-4.409-5.678zM146.597 30.406h6.02l-3.001-6.26-3.019 6.26zm-1.206 2.506l-1.793 3.742h-3.132l7.61-15.43h3.043l7.62 15.43h-3.12l-1.803-3.742h-8.425zM160.865 36.654v-15.43h2.891V34.11h10.43v2.544zM176.146 36.654v-15.43h14.24v2.545h-11.341v3.753h8.814v2.548h-8.814v4.04h11.833v2.544z"/>
        <path fill="#E60028" d="M0 19.003h37.333V.18H0z"/>
        <path fill="#1A171B" d="M0 37.071h37.333V18.628H0z"/>
        <path fill="#FFF" d="M6.509 19.75h24.286V17.5H6.51z"/>
    </g>
</svg>
